<svg width="310" height="82" fill="none" xmlns="http://www.w3.org/2000/svg"><g filter="url(#filter0_d_101_2)"><path d="M181.479 67.116v.488c0 5.951 3.013 10.01 7.517 10.193h1.948v.946h-1.598c-.122 0-.228 0-.35-.015l-6.908-.03c-7.289 0-13.239-4.655-13.482-10.453h-.016V44.242h-4.854v-.947c9.267 0 16.815-7.446 16.815-16.602h.943v16.602h11.215v.947h-4.626c-3.637 0-6.589 3.158-6.589 7.05v15.824h-.015zM45.181 40.793h-.943c0 5.173-4.017 9.415-9.115 9.797h-.73v.03h-.031v.946h.776c5.067.382 9.054 4.654 9.054 9.858h.944c0-5.173 4.017-9.415 9.114-9.797h.73v-.03h.031v-.946h-.776c-5.067-.382-9.054-4.655-9.054-9.858zm19.037 9.66v-26.17H30.604V2.43h-.944c0 12.04-10.91 21.852-24.301 21.852H3v.946h10.332V70.87c-.548 3.48-3.56 6.15-7.182 6.15H3v.946h38.255v-.946h-3.378c-4.017 0-7.274-3.266-7.274-7.294V25.213h6.437c13.71 0 24.743 10.636 26.234 25.285l.944-.046zM76.802 38c3.774 0 6.848-3.082 6.848-6.866 0-3.785-3.074-6.867-6.848-6.867s-6.848 3.082-6.848 6.867C69.97 34.918 73.044 38 76.802 38zm46.046 5.463l.016-.03c-2.359-1.068-4.398-.84-7.213-.55-.518.061-1.081.122-1.689.168v-.015c-.366 0-.716.03-1.066.076a89.02 89.02 0 01-5.417.183H70.396v27.452c-.685 3.556-4.276 6.257-7.29 6.257v.946H83.3V52.04l.015.03v-1.8c0-3.617 2.404-6.044 5.965-6.044 3.241 0 5.524 2.015 5.904 5.112v28.597h20.162v-.947c-3.058 0-6.573-2.624-7.273-6.21V49.476c.289-2.762 2.084-4.853 4.671-5.372 1.142-.076 2.146-.183 3.028-.274.031 0 .046 0 .077-.016h.456c-2.237 1.282-3.759 3.693-3.759 6.455 0 4.09 3.318 7.416 7.396 7.416 4.078 0 7.395-3.326 7.395-7.416a7.437 7.437 0 00-4.489-6.806zm33.447 15.413c0-.016-.046-.031-.122-.077a15.024 15.024 0 00-1.582-.961c-3.013-1.831-9.176-5.6-11.595-7.248-1.111-.764-1.72-1.862-1.72-3.113 0-2.152 1.948-3.907 4.352-3.907 3.043 0 5.828.84 8.019 2.243l.183.138c.898.671 3.545 3.006 4.55 7.477 0 .076.015.152.015.229h.046c.121.61.228 1.266.289 1.968l.943-.046V41.831h-.943c0 2.441-1.522 3.723-3.013 3.723-.472 0-.913-.122-1.309-.366-.03-.016-.061-.046-.091-.061-.122-.092-.198-.138-.213-.138v.016c-2.328-1.48-5.265-2.366-8.461-2.366-7.563 0-13.71 4.944-13.71 11.018 0 3.021 1.491 5.86 4.215 7.95.106.076.198.153.304.229 0 0 .015 0 .031.015.334.244.684.473 1.05.687 2.465 1.617 8.491 5.6 11.047 7.492 1.126.824 1.735 2.045 1.735 3.434 0 2.288-1.826 4.18-4.124 4.303-3.515-.061-6.771-1.175-9.237-2.96l.016-.016c-.061-.03-4.52-3.311-4.855-11.734l-.943.015V78.24h.943c0-2.121.853-3.342 2.359-3.342.609 0 1.248.214 1.826.58 2.587 1.907 5.98 3.128 9.663 3.235v.015h.548c8.034 0 14.577-5.112 14.577-11.399-.015-3.357-1.856-6.363-4.793-8.453z" fill="#fff"/></g><g filter="url(#filter1_d_101_2)"><path d="M196.574 71.266c0-1.999.716-3.693 2.161-5.097 1.446-1.403 3.181-2.105 5.235-2.105 2.039 0 3.804.686 5.265 2.06 1.476 1.373 2.206 3.082 2.206 5.127s-.73 3.77-2.16 5.173c-1.446 1.404-3.211 2.106-5.311 2.106-2.039 0-3.789-.702-5.235-2.106-1.445-1.373-2.161-3.098-2.161-5.158zm66.422 6.669h-19.66v-4.792c-1.141 1.8-2.556 3.174-4.215 4.12-1.674.946-3.972 1.42-6.909 1.42-3.439 0-6.482-1.023-9.114-3.068-2.694-1.999-4.033-4.776-4.033-8.316V50.666l-.076-3.067c0-1.343-.213-2.29-.639-2.808-.426-.519-1.339-.855-2.724-1.007l-2.1-.153v-1.205h19.949v24.507l.077 3.067c0 2.044.35 3.586 1.08 4.608.715 1.022 1.796 1.541 3.226 1.541 1.582 0 2.724-.442 3.454-1.343.715-.9 1.294-1.816 1.75-2.777V51.795l-.152-3.449c0-1.648-.274-2.777-.807-3.372-.547-.595-1.628-.992-3.256-1.205l-2.283-.153V42.41h20.924v27.285l.076 3.067c0 1.343.213 2.289.639 2.807.426.52 1.339.855 2.724 1.007l2.1.153v1.206h-.031zm39.579-3.663c1.172 0 2.009-.732 2.466-2.228.471-1.48.7-3.25.7-5.31h1.049c0 4.41-.791 7.31-2.358 8.713-1.567 1.404-2.983 2.29-4.215 2.67-1.248.382-2.846.565-4.778.565-2.146 0-4.048-.549-5.722-1.648-1.674-1.098-2.678-2.579-3.028-4.425-.791 2.03-2.13 3.54-4.002 4.563-1.872 1.022-4.291 1.526-7.289 1.526-3.196 0-5.782-.87-7.776-2.625-1.993-1.755-2.982-4.181-2.982-7.279 0-2.502.624-4.517 1.871-6.043 1.248-1.526 2.511-2.472 3.805-2.823 1.293-.35 3.286-.656 5.98-.9 2.693-.244 4.671-.534 5.934-.87 1.263-.335 2.176-.671 2.724-1.053.548-.381.822-1.007.822-1.907l-.076-6.836c0-1.954-.244-3.357-.746-4.212-.487-.855-1.521-1.282-3.104-1.282-.989 0-1.811.23-2.48.672-.67.457-1.005 1.022-1.005 1.724 0 .55.533 1.236 1.598 2.075 1.065.824 1.598 2.076 1.598 3.724 0 1.556-.685 2.93-2.07 4.135-1.369 1.205-3.606 1.8-6.71 1.8-1.705 0-3.181-.457-4.459-1.388-1.278-.93-1.917-2.167-1.917-3.723 0-3.113 1.735-5.6 5.204-7.447 3.469-1.862 7.608-2.792 12.402-2.792 4.047 0 7.76.839 11.154 2.517 3.393 1.679 5.097 4.273 5.097 7.798v17.243c0 1.602.153 2.838.442 3.693.274.916.882 1.373 1.871 1.373zm-16.784-2.258V57.7l-.228-.077c-.441.595-1.263 1.16-2.48 1.694-1.203.519-2.039 1.038-2.511 1.541-.472.504-.837 1.465-1.111 2.884a23.09 23.09 0 00-.411 4.38c0 2.243.167 4.043.517 5.402.35 1.358 1.127 2.03 2.359 2.03.944 0 1.765-.382 2.48-1.13.716-.748 1.187-1.556 1.385-2.411z" fill="url(#paint0_linear_101_2)"/></g><defs><filter id="filter0_d_101_2" x=".941" y=".372" width="193.826" height="80.43" filterUnits="userSpaceOnUse" color-interpolation-filters="sRGB"><feFlood flood-opacity="0" result="BackgroundImageFix"/><feColorMatrix in="SourceAlpha" values="0 0 0 0 0 0 0 0 0 0 0 0 0 0 0 0 0 0 127 0" result="hardAlpha"/><feOffset/><feGaussianBlur stdDeviation="1.029"/><feColorMatrix values="0 0 0 0 1 0 0 0 0 1 0 0 0 0 1 0 0 0 1 0"/><feBlend in2="BackgroundImageFix" result="effect1_dropShadow_101_2"/><feBlend in="SourceGraphic" in2="effect1_dropShadow_101_2" result="shape"/></filter><filter id="filter1_d_101_2" x="193.693" y="38.766" width="115.98" height="42.814" filterUnits="userSpaceOnUse" color-interpolation-filters="sRGB"><feFlood flood-opacity="0" result="BackgroundImageFix"/><feColorMatrix in="SourceAlpha" values="0 0 0 0 0 0 0 0 0 0 0 0 0 0 0 0 0 0 127 0" result="hardAlpha"/><feOffset/><feGaussianBlur stdDeviation="1.441"/><feColorMatrix values="0 0 0 0 0 0 0 0 0 0.484514 0 0 0 0 0.591667 0 0 0 1 0"/><feBlend in2="BackgroundImageFix" result="effect1_dropShadow_101_2"/><feBlend in="SourceGraphic" in2="effect1_dropShadow_101_2" result="shape"/></filter><linearGradient id="paint0_linear_101_2" x1="101.25" y1="21.982" x2="324.932" y2="86.03" gradientUnits="userSpaceOnUse"><stop stop-color="#00F"/><stop offset="1" stop-color="#0FF"/></linearGradient></defs></svg>