<svg width="310" height="82" viewBox="0 0 310 82" fill="none" xmlns="http://www.w3.org/2000/svg">
<g filter="url(#filter0_d_101_2)">
<path d="M181.479 67.1156V67.6039C181.479 73.5551 184.492 77.6142 188.996 77.7973H190.944V78.7434H189.346C189.224 78.7434 189.118 78.7434 188.996 78.7281L182.088 78.6976C174.799 78.6976 168.849 74.0434 168.606 68.2448H168.59V67.8633V67.4055V44.2416H163.736V43.2955C173.003 43.2955 180.551 35.8488 180.551 26.6931H181.494V43.2955H188.083H192.709V44.2416H188.083C184.446 44.2416 181.494 47.4003 181.494 51.2915V67.1156H181.479ZM45.1813 40.7929H44.2378C44.2378 45.9659 40.2205 50.208 35.1229 50.5895H34.3925V50.62C34.3773 50.62 34.3773 50.62 34.362 50.62V51.5661H35.1381C40.2053 51.9476 44.1922 56.2203 44.1922 61.4238H45.1356C45.1356 56.2508 49.1529 52.0087 54.2505 51.6272H54.9809V51.5967C54.9962 51.5967 54.9962 51.5967 55.0114 51.5967V50.6506H54.2353C49.1681 50.2691 45.1813 45.9964 45.1813 40.7929ZM64.2176 50.4522V24.2821H58.0243H37.0402H30.6035V2.43042H29.66C29.66 14.4702 18.7495 24.2821 5.35862 24.2821H3V25.2282H5.35862H13.3323V70.8694C12.7845 74.3486 9.77152 77.019 6.1499 77.019H3V77.9651H6.13468H13.3171H13.8801H21.9603H22.295H30.1317H30.6035H37.8771H41.2553V77.019H37.8771C33.8599 77.019 30.6035 73.7535 30.6035 69.725V67.8938V25.2129H37.0402C50.7506 25.2129 61.7829 35.8488 63.2742 50.498L64.2176 50.4522ZM76.802 38.0004C80.5758 38.0004 83.6496 34.918 83.6496 31.1336C83.6496 27.3492 80.5758 24.2668 76.802 24.2668C73.0282 24.2668 69.9544 27.3492 69.9544 31.1336C69.9696 34.918 73.0434 38.0004 76.802 38.0004ZM122.848 43.4633L122.864 43.4328C120.505 42.3646 118.466 42.5935 115.651 42.8835C115.133 42.9445 114.57 43.0055 113.962 43.0513V43.0361C113.596 43.0361 113.246 43.0666 112.896 43.1123C111.633 43.1886 109.686 43.2955 107.479 43.2955H95.747H95.1688H89.2646H83.2844H82.7822H70.3957V70.7474C69.7109 74.3028 66.1197 77.0038 63.1068 77.0038V77.9499H70.3957H71.05H83.2996V52.0392L83.3148 52.0697V50.2691C83.3148 46.6526 85.7191 44.2263 89.2798 44.2263C92.521 44.2263 94.8036 46.2406 95.184 49.3382V77.9346H107.418H108.073H115.346V76.9885C112.288 76.9885 108.773 74.3639 108.073 70.7779V49.4756C108.362 46.7136 110.157 44.623 112.744 44.1042C113.886 44.0279 114.89 43.9211 115.772 43.8295C115.803 43.8295 115.818 43.8295 115.849 43.8143H116.305C114.068 45.0961 112.546 47.5071 112.546 50.2691C112.546 54.3586 115.864 57.6852 119.942 57.6852C124.02 57.6852 127.337 54.3586 127.337 50.2691C127.322 47.2172 125.481 44.5925 122.848 43.4633ZM156.295 58.8755C156.295 58.8602 156.249 58.8449 156.173 58.7992C155.671 58.4482 155.139 58.1277 154.591 57.8378C151.578 56.0067 145.415 52.2376 142.996 50.5895C141.885 49.8265 141.276 48.7279 141.276 47.4766C141.276 45.325 143.224 43.5701 145.628 43.5701C148.671 43.5701 151.456 44.4094 153.647 45.8133C153.708 45.8591 153.769 45.9048 153.83 45.9506C154.728 46.622 157.375 48.9567 158.38 53.4278C158.38 53.5041 158.395 53.5804 158.395 53.6567H158.441C158.562 54.2671 158.669 54.9232 158.73 55.6252L159.673 55.5794V41.8305H158.73C158.73 44.2721 157.208 45.5539 155.717 45.5539C155.245 45.5539 154.804 45.4318 154.408 45.1876C154.378 45.1724 154.347 45.1419 154.317 45.1266C154.195 45.035 154.119 44.9893 154.104 44.9893V45.0045C151.776 43.5244 148.839 42.6393 145.643 42.6393C138.08 42.6393 131.933 47.5834 131.933 53.6567C131.933 56.6781 133.424 59.5163 136.148 61.6069C136.254 61.6832 136.346 61.7595 136.452 61.8358C136.452 61.8358 136.467 61.8358 136.483 61.8511C136.817 62.0952 137.167 62.3241 137.533 62.5377C139.998 64.1552 146.024 68.138 148.58 70.0302C149.706 70.8542 150.315 72.0749 150.315 73.4636C150.315 75.7525 148.489 77.6447 146.191 77.7668C142.676 77.7057 139.42 76.5918 136.954 74.8064L136.97 74.7911C136.909 74.7606 132.45 71.4798 132.115 63.0566L131.172 63.0718V78.2398H132.115C132.115 76.1187 132.968 74.898 134.474 74.898C135.083 74.898 135.722 75.1116 136.3 75.4778C138.887 77.3853 142.28 78.606 145.963 78.7129V78.7281C146.054 78.7281 146.13 78.7281 146.206 78.7281C146.298 78.7281 146.404 78.7281 146.511 78.7281C154.545 78.7281 161.088 73.6162 161.088 67.3292C161.073 63.9721 159.232 60.966 156.295 58.8755Z" fill="white"/>
</g>
<g filter="url(#filter1_d_101_2)">
<path d="M196.574 71.2662C196.574 69.2672 197.29 67.5734 198.735 66.1695C200.181 64.7657 201.916 64.0637 203.97 64.0637C206.009 64.0637 207.774 64.7504 209.235 66.1238C210.711 67.4971 211.441 69.2062 211.441 71.2509C211.441 73.2957 210.711 75.0201 209.281 76.4239C207.835 77.8278 206.07 78.5297 203.97 78.5297C201.931 78.5297 200.181 77.8278 198.735 76.4239C197.29 75.0506 196.574 73.3262 196.574 71.2662ZM262.996 77.9346H243.336V73.1431C242.195 74.9438 240.78 76.3171 239.121 77.2632C237.447 78.2093 235.149 78.6823 232.212 78.6823C228.773 78.6823 225.73 77.66 223.098 75.6152C220.404 73.6162 219.065 70.8389 219.065 67.2987V50.6658L218.989 47.5987C218.989 46.2558 218.776 45.3097 218.35 44.7909C217.924 44.2721 217.011 43.9364 215.626 43.7838L213.526 43.6312V42.4257H233.475V66.9325L233.552 69.9997C233.552 72.0444 233.902 73.5857 234.632 74.608C235.347 75.6304 236.428 76.1493 237.858 76.1493C239.44 76.1493 240.582 75.7067 241.312 74.8064C242.027 73.9061 242.606 72.9905 243.062 72.0292V51.795L242.91 48.3464C242.91 46.6984 242.636 45.5692 242.103 44.974C241.556 44.3789 240.475 43.9822 238.847 43.7685L236.564 43.6159V42.4104H257.488V69.6945L257.564 72.7616C257.564 74.1045 257.777 75.0506 258.203 75.5694C258.629 76.0882 259.542 76.4239 260.927 76.5765L263.027 76.7291V77.9346H262.996ZM302.575 74.2723C303.747 74.2723 304.584 73.5399 305.041 72.0444C305.512 70.5643 305.741 68.7942 305.741 66.7341H306.79C306.79 71.1441 305.999 74.0434 304.432 75.4473C302.865 76.8512 301.449 77.7363 300.217 78.1177C298.969 78.4992 297.371 78.6823 295.439 78.6823C293.293 78.6823 291.391 78.133 289.717 77.0343C288.043 75.9356 287.039 74.4555 286.689 72.6091C285.898 74.6386 284.559 76.1493 282.687 77.1716C280.815 78.194 278.396 78.6976 275.398 78.6976C272.202 78.6976 269.616 77.8278 267.622 76.073C265.629 74.3181 264.64 71.8919 264.64 68.7942C264.64 66.2916 265.264 64.2773 266.511 62.7514C267.759 61.2254 269.022 60.2793 270.316 59.9284C271.609 59.5774 273.602 59.2722 276.296 59.0281C278.989 58.7839 280.967 58.494 282.23 58.1583C283.493 57.8226 284.406 57.4869 284.954 57.1054C285.502 56.7239 285.776 56.0982 285.776 55.1979L285.7 48.3617C285.7 46.4084 285.456 45.0046 284.954 44.15C284.467 43.2955 283.433 42.8682 281.85 42.8682C280.861 42.8682 280.039 43.0971 279.37 43.5396C278.7 43.9974 278.365 44.562 278.365 45.264C278.365 45.8133 278.898 46.5 279.963 47.3393C281.028 48.1633 281.561 49.4146 281.561 51.0626C281.561 52.6191 280.876 53.9924 279.491 55.1979C278.122 56.4034 275.885 56.9985 272.781 56.9985C271.076 56.9985 269.6 56.5408 268.322 55.6099C267.044 54.6791 266.405 53.4431 266.405 51.8866C266.405 48.7737 268.14 46.2864 271.609 44.44C275.078 42.5783 279.217 41.6475 284.011 41.6475C288.058 41.6475 291.771 42.4867 295.165 44.1653C298.558 45.8438 300.262 48.438 300.262 51.9629V69.2062C300.262 70.8084 300.415 72.0444 300.704 72.899C300.978 73.8146 301.586 74.2723 302.575 74.2723ZM285.791 72.0139V57.7005L285.563 57.6242C285.122 58.2193 284.3 58.7839 283.083 59.318C281.88 59.8368 281.044 60.3556 280.572 60.8592C280.1 61.3628 279.735 62.3241 279.461 63.7433C279.187 65.1624 279.05 66.6273 279.05 68.1227C279.05 70.3659 279.217 72.1665 279.567 73.5246C279.917 74.8827 280.694 75.5541 281.926 75.5541C282.87 75.5541 283.691 75.1727 284.406 74.4249C285.122 73.6772 285.593 72.8685 285.791 72.0139Z" fill="url(#paint0_linear_101_2)"/>
</g>
<defs>
<filter id="filter0_d_101_2" x="0.941472" y="0.371891" width="193.826" height="80.43" filterUnits="userSpaceOnUse" color-interpolation-filters="sRGB">
<feFlood flood-opacity="0" result="BackgroundImageFix"/>
<feColorMatrix in="SourceAlpha" type="matrix" values="0 0 0 0 0 0 0 0 0 0 0 0 0 0 0 0 0 0 127 0" result="hardAlpha"/>
<feOffset/>
<feGaussianBlur stdDeviation="1.02926"/>
<feColorMatrix type="matrix" values="0 0 0 0 1 0 0 0 0 1 0 0 0 0 1 0 0 0 1 0"/>
<feBlend mode="normal" in2="BackgroundImageFix" result="effect1_dropShadow_101_2"/>
<feBlend mode="normal" in="SourceGraphic" in2="effect1_dropShadow_101_2" result="shape"/>
</filter>
<filter id="filter1_d_101_2" x="193.693" y="38.7655" width="115.98" height="42.8141" filterUnits="userSpaceOnUse" color-interpolation-filters="sRGB">
<feFlood flood-opacity="0" result="BackgroundImageFix"/>
<feColorMatrix in="SourceAlpha" type="matrix" values="0 0 0 0 0 0 0 0 0 0 0 0 0 0 0 0 0 0 127 0" result="hardAlpha"/>
<feOffset/>
<feGaussianBlur stdDeviation="1.44097"/>
<feColorMatrix type="matrix" values="0 0 0 0 0 0 0 0 0 0.484514 0 0 0 0 0.591667 0 0 0 1 0"/>
<feBlend mode="normal" in2="BackgroundImageFix" result="effect1_dropShadow_101_2"/>
<feBlend mode="normal" in="SourceGraphic" in2="effect1_dropShadow_101_2" result="shape"/>
</filter>
<linearGradient id="paint0_linear_101_2" x1="101.25" y1="21.9821" x2="324.932" y2="86.0297" gradientUnits="userSpaceOnUse">
<stop stop-color="#0000FF"/>
<stop offset="1" stop-color="#00FFFF"/>
</linearGradient>
</defs>
</svg>
